HIERARCHY
ROOT Hips
{
  OFFSET -4.35178 90.3298 111.633
  CHANNELS 6 Xposition Yposition Zposition Zrotation Xrotation Yrotation
  JOINT LeftUpLeg
  {
    OFFSET 0.103456 1.85784 10.5485
    CHANNELS 6 Xposition Yposition Zposition Zrotation Xrotation Yrotation
    JOINT LeftLeg
    {
      OFFSET 43.5 -4.2e-05 0
      CHANNELS 6 Xposition Yposition Zposition Zrotation Xrotation Yrotation
      JOINT LeftFoot
      {
        OFFSET 42.3722 1.9e-05 0
        CHANNELS 6 Xposition Yposition Zposition Zrotation Xrotation Yrotation
        JOINT LeftToe
        {
          OFFSET 17.3 0 0
          CHANNELS 6 Xposition Yposition Zposition Zrotation Xrotation Yrotation
          End Site
          {
            OFFSET 0 0 0
          }
        }
      }
    }
  }
  JOINT RightUpLeg
  {
    OFFSET 0.103456 1.85782 -10.5485
    CHANNELS 6 Xposition Yposition Zposition Zrotation Xrotation Yrotation
    JOINT RightLeg
    {
      OFFSET 43.5 -2.7e-05 0
      CHANNELS 6 Xposition Yposition Zposition Zrotation Xrotation Yrotation
      JOINT RightFoot
      {
        OFFSET 42.3723 0 0
        CHANNELS 6 Xposition Yposition Zposition Zrotation Xrotation Yrotation
        JOINT RightToe
        {
          OFFSET 17.3 0 1.7e-05
          CHANNELS 6 Xposition Yposition Zposition Zrotation Xrotation Yrotation
          End Site
          {
            OFFSET 0 0 0
          }
        }
      }
    }
  }
  JOINT Spine
  {
    OFFSET 6.90197 -2.60373 0
    CHANNELS 6 Xposition Yposition Zposition Zrotation Xrotation Yrotation
    JOINT Spine1
    {
      OFFSET 12.5881 0 0
      CHANNELS 6 Xposition Yposition Zposition Zrotation Xrotation Yrotation
      JOINT Spine2
      {
        OFFSET 12.3432 -1.8e-05 0
        CHANNELS 6 Xposition Yposition Zposition Zrotation Xrotation Yrotation
        JOINT Neck
        {
          OFFSET 25.8329 2.3e-05 0
          CHANNELS 6 Xposition Yposition Zposition Zrotation Xrotation Yrotation
          JOINT Head
          {
            OFFSET 11.7666 0 0
            CHANNELS 6 Xposition Yposition Zposition Zrotation Xrotation Yrotation
            End Site
            {
              OFFSET 0 0 0
            }
          }
        }
        JOINT LeftShoulder
        {
          OFFSET 19.7459 -1.48035 6.0001
          CHANNELS 6 Xposition Yposition Zposition Zrotation Xrotation Yrotation
          JOINT LeftArm
          {
            OFFSET 11.2841 1.8e-05 -2e-05
            CHANNELS 6 Xposition Yposition Zposition Zrotation Xrotation Yrotation
            JOINT LeftForeArm
            {
              OFFSET 33 -1.3e-05 1.9e-05
              CHANNELS 6 Xposition Yposition Zposition Zrotation Xrotation Yrotation
              JOINT LeftHand
              {
                OFFSET 25.2 3.2e-05 1.1e-05
                CHANNELS 6 Xposition Yposition Zposition Zrotation Xrotation Yrotation
                End Site
                {
                  OFFSET 0 0 0
                }
              }
            }
          }
        }
        JOINT RightShoulder
        {
          OFFSET 19.7461 -1.48036 -6.00008
          CHANNELS 6 Xposition Yposition Zposition Zrotation Xrotation Yrotation
          JOINT RightArm
          {
            OFFSET 11.2841 0 0
            CHANNELS 6 Xposition Yposition Zposition Zrotation Xrotation Yrotation
            JOINT RightForeArm
            {
              OFFSET 33.0001 1.6e-05 0
              CHANNELS 6 Xposition Yposition Zposition Zrotation Xrotation Yrotation
              JOINT RightHand
              {
                OFFSET 25.1998 0.000123 0.000432
                CHANNELS 6 Xposition Yposition Zposition Zrotation Xrotation Yrotation
                End Site
                {
                  OFFSET 0 0 0
                }
              }
            }
          }
        }
      }
    }
  }
}
MOTION
Frames:	4
Frame Time:	0.0333333
102.675 86.2708 71.2333 17.8306 -82.8413 -72.5175 0.103456 1.85784 10.5485 -23.4014 7.01364 176.231 43.5 -4.2e-05 1e-05 -19.9943 -2.23832 2.87908 42.3722 1.9e-05 0 64.8174 4.72017 1.67426 17.3 0 3e-06 21.4546 -1e-06 0.003093 0.103456 1.85782 -10.5485 26.6847 -18.4443 179.51 43.5 -2.7e-05 4e-06 -23.27 16.2061 5.39338 42.3723 -7.10543e-15 1e-05 83.8313 3.21833 -1.22252 17.3 -6e-06 1.7e-05 21.4546 -1.9e-05 -0.003116 6.90197 -2.60373 -3e-06 8.78021 0.511885 0.62793 12.5881 1e-05 8e-06 7.52417 1.21826 1.19296 12.3432 -1.8e-05 -5e-06 7.18257 1.40073 1.13005 25.8329 2.3e-05 7e-06 5.12253 -7.83345 -3.65442 11.7666 -8e-06 -6e-06 -14.1655 -12.7689 6.82636 19.7459 -1.48035 6.0001 -170.464 -0.0204855 -69.3078 11.2841 1.8e-05 -2e-05 2.52548 -0.473474 58.8124 33 -1.3e-05 1.9e-05 -17.4118 3.22157 -15.7616 25.2 3.2e-05 1.1e-05 4.09164 30.4424 -0.132715 19.7461 -1.48036 -6.00008 -176.79 1.44829 71.6924 11.2841 0 -1e-06 -25.0712 -11.3283 -41.6987 33.0001 1.6e-05 -1e-06 -40.9555 -3.55732 13.0352 25.1998 0.000123 0.000432 -6.27173 -15.0051 6.69629 
102.412 86.0235 66.3671 8.7 -83.0986 -81.287 0.103456 1.85784 10.5485 -23.7584 6.23376 176.014 43.5 -4.2e-05 1e-05 -25.552 -2.55711 3.44535 42.3722 1.9e-05 -1.42109e-14 62.5065 2.52374 3.70716 17.3 0 3e-06 21.4546 -1e-06 0.003093 0.103456 1.85782 -10.5485 25.1984 -15.9711 177.407 43.5 -2.7e-05 4e-06 -30.599 16.7415 6.42502 42.3723 -3.55271e-15 1e-05 79.5695 0.547474 -3.09795 17.3 -6e-06 1.7e-05 21.4546 -1.9e-05 -0.003116 6.90197 -2.60373 -3e-06 8.51347 0.697647 0.347435 12.5881 1e-05 8e-06 6.99112 1.53425 0.605996 12.3432 -1.8e-05 -5e-06 6.64807 1.67175 0.524211 25.8329 2.3e-05 7e-06 5.47497 -7.14193 -4.038 11.7666 -8e-06 -6e-06 -12.8087 -12.8083 7.71696 19.7459 -1.48035 6.0001 -169.705 0.518749 -69.2828 11.2841 1.8e-05 -2e-05 1.76774 0.171264 59.2567 33 -1.3e-05 1.9e-05 -16.7258 3.95674 -15.6693 25.2 3.2e-05 1.1e-05 3.51757 30.6727 0.424093 19.7461 -1.48036 -6.00008 -176.615 2.11723 71.2773 11.2841 0 -1e-06 -25.1359 -11.626 -42.5307 33.0001 1.6e-05 -1e-06 -40.1649 -3.24244 13.0345 25.1998 0.000123 0.000432 -6.09295 -14.8568 6.70785 
102.011 86.3019 61.6042 4.90609 -82.8883 -84.5653 0.103456 1.85784 10.5485 -23.7334 7.49066 175.304 43.5 -4.2e-05 1e-05 -32.2286 -3.07682 4.33466 42.3722 1.9e-05 -1.42109e-14 66.2853 3.28179 3.76233 17.3 0 3e-06 21.4546 -1e-06 0.003093 0.103456 1.85782 -10.5485 21.5083 -13.9869 174.465 43.5 -2.7e-05 4e-06 -40.8434 16.6134 8.27794 42.3723 7.10543e-15 1e-05 70.8944 -3.48986 -5.23442 17.3 -6e-06 1.7e-05 21.4546 -1.9e-05 -0.003116 6.90197 -2.60373 -3e-06 8.35126 0.686393 0.0605011 12.5881 1e-05 8e-06 6.67252 1.46163 0.0374301 12.3432 -1.8e-05 -5e-06 6.33277 1.5593 -0.0392165 25.8329 2.3e-05 7e-06 5.88244 -6.47294 -4.34662 11.7666 -8e-06 -6e-06 -12.0098 -12.6907 8.49755 19.7459 -1.48035 6.0001 -169.474 1.02566 -69.7789 11.2841 1.8e-05 -2e-05 0.500056 0.317014 60.0732 33 -1.3e-05 1.9e-05 -16.875 4.85284 -15.224 25.2 3.2e-05 1.1e-05 2.23226 30.8336 1.00659 19.7461 -1.48036 -6.00008 -176.292 2.46235 70.9704 11.2841 -1.42109e-14 -1e-06 -25.2397 -11.6781 -43.7135 33.0001 1.6e-05 -1e-06 -39.2112 -3.00731 13.03 25.1998 0.000123 0.000432 -6.04092 -14.4776 6.48675 
101.595 86.8178 57.0109 1.0465 -82.6348 -87.7334 0.103456 1.85784 10.5485 -21.7168 8.70062 174.92 43.5 -4.2e-05 1e-05 -35.2442 -3.56072 4.09201 42.3722 1.9e-05 -1.42109e-14 69.3781 3.73404 3.61603 17.3 1.77636e-15 3e-06 21.4546 -1e-06 0.003093 0.103456 1.85782 -10.5485 15.5322 -11.9019 170.823 43.5 -2.7e-05 4e-06 -53.4286 16.3881 9.62984 42.3723 -3.55271e-15 1e-05 61.5179 -10.3109 -6.27363 17.3 -6e-06 1.7e-05 21.4546 -1.9e-05 -0.003116 6.90197 -2.60373 -3e-06 8.3309 0.62205 -0.245726 12.5881 1e-05 8e-06 6.63818 1.28426 -0.562724 12.3432 -1.8e-05 -5e-06 6.30286 1.34464 -0.627385 25.8329 2.3e-05 7e-06 6.18782 -5.80107 -4.61443 11.7666 -8e-06 -6e-06 -12.0326 -12.2822 9.04645 19.7459 -1.48035 6.0001 -169.78 1.81714 -71.1256 11.2841 1.8e-05 -2e-05 -0.695442 -0.588878 61.402 33 -1.3e-05 1.9e-05 -17.9532 5.22518 -14.394 25.2 3.2e-05 1.1e-05 1.58431 31.1502 0.924168 19.7461 -1.48036 -6.00008 -175.865 2.19373 71.1602 11.2841 0 -1e-06 -25.4525 -11.1141 -45.187 33.0001 1.6e-05 -1e-06 -38.3728 -2.69777 12.8968 25.1998 0.000123 0.000432 -5.77365 -14.0568 6.16321 
